# xmcd CD database file
#
# Track frame offsets:
#	150
#	29231
#	63944
#	79253
#	110834
#	146769
#
# Disc length: 2336 seconds
#
# Revision: 0
# Processed by: cddbd v1.5.2PL0 Copyright (c) Steve Scherf et al.
# Submitted via: CDex 1.77
#
DISCID=59091e06
DTITLE=Bob Wagner - Toot Suite
DYEAR=2017
DGENRE=Jazz
TTITLE0=Allegre
TTITLE1=Mystique
TTITLE2=Rag Polka
TTITLE3=Marche
TTITLE4=Vesperale
TTITLE5=Spirituelle
EXTD=YEAR: 2017
EXTT0=
EXTT1=
EXTT2=
EXTT3=
EXTT4=
EXTT5=
PLAYORDER=
